<svg width="32" height="26" viewBox="0 0 32 26" fill="none" xmlns="http://www.w3.org/2000/svg">
<path fill-rule="evenodd" clip-rule="evenodd" d="M0.619263 3.84766C1.55386 2.92702 2.61446 2.20378 3.74749 1.67831C7.91956 -0.256588 12.9606 0.492378 16.4392 3.90517C16.4493 3.9137 16.4654 3.92704 16.4872 3.94473C16.5324 3.98133 16.6021 4.03645 16.6952 4.10588C16.8815 4.24481 17.1604 4.44048 17.5215 4.65936C18.2449 5.09789 19.2902 5.62479 20.5749 5.97841C23.1235 6.67988 26.6474 6.71228 30.5471 3.93009L31.3022 4.98837C27.0422 8.02751 23.1038 8.02278 20.23 7.2318C18.8035 6.83919 17.6476 6.25602 16.8476 5.77104C16.4469 5.52817 16.1336 5.30873 15.9181 5.14799C15.8102 5.06757 15.7267 5.00172 15.6688 4.9548C15.6398 4.93133 15.6173 4.91259 15.6012 4.89911L15.5821 4.88291L15.5763 4.87789L15.5743 4.87618L15.5736 4.87552C15.5733 4.87525 15.573 4.875 16 4.38497L15.573 4.875L15.558 4.86196L15.5439 4.84804C12.4577 1.80795 7.99037 1.14358 4.29444 2.85765C3.29409 3.32159 2.35769 3.96 1.53156 4.77379L0.619263 3.84766ZM0.619263 12.2062C1.55386 11.2855 2.61446 10.5623 3.74749 10.0368C7.91956 8.10193 12.9606 8.8509 16.4392 12.2637C16.4493 12.2722 16.4654 12.2856 16.4872 12.3033C16.5324 12.3398 16.6021 12.395 16.6952 12.4644C16.8815 12.6033 17.1604 12.799 17.5215 13.0179C18.2449 13.4564 19.2902 13.9833 20.5749 14.3369C23.1235 15.0384 26.6474 15.0708 30.5471 12.2886L31.3022 13.3469C27.0422 16.386 23.1038 16.3813 20.23 15.5903C18.8035 15.1977 17.6476 14.6145 16.8476 14.1296C16.4469 13.8867 16.1336 13.6672 15.9181 13.5065C15.8102 13.4261 15.7267 13.3602 15.6688 13.3133C15.6398 13.2899 15.6173 13.2711 15.6012 13.2576L15.5821 13.2414L15.5763 13.2364L15.5743 13.2347L15.5736 13.234C15.5733 13.2338 15.573 13.2335 16 12.7435L15.573 13.2335L15.558 13.2205L15.5439 13.2066C12.4577 10.1665 7.99037 9.5021 4.29444 11.2162C3.29409 11.6801 2.35769 12.3185 1.53156 13.1323L0.619263 12.2062ZM3.74749 19.4402C2.61446 19.9656 1.55386 20.6889 0.619263 21.6095L1.53156 22.5356C2.35769 21.7218 3.29409 21.0834 4.29444 20.6195C7.99037 18.9054 12.4577 19.5698 15.5439 22.6099L15.558 22.6238L15.573 22.6368L16 22.1468C15.573 22.6368 15.5733 22.6371 15.5736 22.6374L15.5743 22.638L15.5763 22.6397L15.5821 22.6447L15.6012 22.661C15.6173 22.6744 15.6398 22.6932 15.6688 22.7166C15.7267 22.7636 15.8102 22.8294 15.9181 22.9098C16.1336 23.0706 16.4469 23.29 16.8476 23.5329C17.6476 24.0179 18.8035 24.601 20.23 24.9936C23.1038 25.7846 27.0422 25.7894 31.3022 22.7502L30.5471 21.6919C26.6474 24.4741 23.1235 24.4417 20.5749 23.7402C19.2902 23.3866 18.2449 22.8597 17.5215 22.4212C17.1604 22.2023 16.8815 22.0067 16.6952 21.8677C16.6021 21.7983 16.5324 21.7432 16.4872 21.7066C16.4654 21.6889 16.4493 21.6755 16.4392 21.667C12.9606 18.2542 7.91956 17.5053 3.74749 19.4402Z" fill="#99B500"/>
</svg>
